<svg width="180" height="60" fill="none" xmlns="http://www.w3.org/2000/svg"><g clip-path="url(#clip0)"><path d="M165.202 0h-150.9c-.55 0-1.093 0-1.642.003-.46.003-.915.012-1.379.02-1.007.011-2.012.1-3.005.264a9.998 9.998 0 0 0-2.852.94 9.657 9.657 0 0 0-2.428 1.769A9.387 9.387 0 0 0 1.23 5.427a9.902 9.902 0 0 0-.937 2.855 19.49 19.49 0 0 0-.27 3.003c-.013.46-.015.922-.022 1.382v34.671c.007.466.009.917.023 1.383a19.49 19.49 0 0 0 .269 3.003c.165.994.48 1.957.937 2.856a9.312 9.312 0 0 0 1.767 2.422 9.412 9.412 0 0 0 2.428 1.768 10.05 10.05 0 0 0 2.852.946c.994.163 1.998.252 3.005.265.464.01.92.016 1.379.016.549.003 1.092.003 1.642.003h150.9c.539 0 1.087 0 1.626-.003.457 0 .926-.006 1.383-.016a19.925 19.925 0 0 0 3-.265c.996-.172 1.96-.491 2.862-.946a9.42 9.42 0 0 0 2.426-1.768 9.622 9.622 0 0 0 1.773-2.422c.452-.9.766-1.862.928-2.856.167-.993.26-1.997.279-3.003.005-.466.005-.917.005-1.383.012-.545.012-1.087.012-1.64V14.303c0-.55 0-1.094-.012-1.637 0-.46 0-.922-.005-1.382a20.425 20.425 0 0 0-.279-3.003 9.94 9.94 0 0 0-.928-2.855 9.702 9.702 0 0 0-4.199-4.2 10.145 10.145 0 0 0-2.862-.94 19.573 19.573 0 0 0-3-.265c-.457-.007-.926-.016-1.383-.02L165.202 0z" fill="#A6A6A6"/><path d="M12.667 58.688c-.457 0-.903-.006-1.356-.017a19.03 19.03 0 0 1-2.804-.244 8.827 8.827 0 0 1-2.485-.822 8.109 8.109 0 0 1-2.096-1.525 7.979 7.979 0 0 1-1.53-2.095A8.583 8.583 0 0 1 1.58 51.5a18.62 18.62 0 0 1-.25-2.812 136.7 136.7 0 0 1-.021-1.37v-34.65s.013-1.038.022-1.342c.011-.941.094-1.88.248-2.808a8.633 8.633 0 0 1 .815-2.494 8.06 8.06 0 0 1 1.523-2.096A8.348 8.348 0 0 1 6.02 2.393a8.735 8.735 0 0 1 2.48-.816c.93-.152 1.87-.235 2.814-.246l1.353-.018H166.82l1.369.019c.934.01 1.866.092 2.788.243a8.9 8.9 0 0 1 2.506.822 8.39 8.39 0 0 1 3.623 3.63c.391.78.661 1.613.803 2.473.155.936.243 1.883.26 2.831.005.425.005.881.005 1.335.012.563.012 1.098.012 1.638v31.393c0 .545 0 1.077-.012 1.613 0 .488 0 .935-.006 1.395a19.192 19.192 0 0 1-.256 2.78 8.634 8.634 0 0 1-.81 2.505 8.235 8.235 0 0 1-1.524 2.078 8.115 8.115 0 0 1-2.099 1.534 8.79 8.79 0 0 1-2.502.825c-.927.151-1.864.233-2.804.244-.439.01-.899.017-1.346.017l-1.626.002-152.535-.002z" fill="#000"/><path d="M37.153 30.451a7.423 7.423 0 0 1 3.535-6.228 7.598 7.598 0 0 0-5.987-3.237c-2.519-.264-4.96 1.508-6.244 1.508-1.308 0-3.285-1.481-5.413-1.438a7.973 7.973 0 0 0-6.71 4.092c-2.9 5.023-.736 12.405 2.043 16.464 1.39 1.988 3.015 4.21 5.141 4.13 2.08-.086 2.858-1.326 5.37-1.326 2.487 0 3.216 1.326 5.386 1.276 2.232-.036 3.639-1.997 4.98-4.004a16.443 16.443 0 0 0 2.278-4.638 7.173 7.173 0 0 1-4.379-6.599zm-4.097-12.135a7.309 7.309 0 0 0 1.672-5.236 7.437 7.437 0 0 0-4.812 2.49 6.954 6.954 0 0 0-1.715 5.042 6.147 6.147 0 0 0 4.855-2.296zM63.453 40.71h-7.1l-1.705 5.034h-3.007l6.725-18.627h3.124l6.726 18.627h-3.059l-1.704-5.035zm-6.364-2.324h5.628l-2.775-8.17h-.077l-2.776 8.17zm25.651.569c0 4.22-2.26 6.931-5.668 6.931a4.604 4.604 0 0 1-4.273-2.376h-.064v6.727h-2.788V32.164h2.698v2.258h.052a4.819 4.819 0 0 1 4.324-2.4c3.447 0 5.719 2.724 5.719 6.933zm-2.866 0c0-2.75-1.42-4.557-3.589-4.557-2.13 0-3.562 1.845-3.562 4.557 0 2.736 1.433 4.568 3.562 4.568 2.168 0 3.59-1.794 3.59-4.568zm17.813 0c0 4.22-2.259 6.931-5.668 6.931a4.603 4.603 0 0 1-4.273-2.376h-.064v6.727h-2.788V32.164h2.698v2.258h.052a4.819 4.819 0 0 1 4.324-2.4c3.447 0 5.719 2.724 5.719 6.933zm-2.865 0c0-2.75-1.421-4.557-3.59-4.557-2.13 0-3.562 1.845-3.562 4.557 0 2.736 1.433 4.569 3.563 4.569 2.168 0 3.588-1.795 3.588-4.57zm12.744 1.599c.206 1.847 2.001 3.06 4.453 3.06 2.349 0 4.04-1.213 4.04-2.878 0-1.446-1.02-2.312-3.434-2.905l-2.414-.582c-3.42-.826-5.008-2.425-5.008-5.021 0-3.214 2.801-5.421 6.778-5.421 3.936 0 6.634 2.207 6.725 5.421h-2.814c-.169-1.859-1.705-2.981-3.951-2.981-2.245 0-3.782 1.135-3.782 2.788 0 1.317.981 2.091 3.382 2.685l2.052.504c3.822.903 5.41 2.439 5.41 5.163 0 3.485-2.776 5.668-7.191 5.668-4.131 0-6.92-2.132-7.1-5.5h2.854zm17.453-11.604v3.214h2.583v2.207h-2.583v7.487c0 1.163.517 1.705 1.653 1.705.306-.005.612-.027.917-.065v2.195a7.66 7.66 0 0 1-1.549.129c-2.749 0-3.822-1.033-3.822-3.667v-7.784h-1.974v-2.207h1.974V28.95h2.801zm4.078 10.005c0-4.273 2.517-6.958 6.441-6.958 3.938 0 6.443 2.685 6.443 6.958 0 4.284-2.492 6.958-6.443 6.958-3.949 0-6.441-2.674-6.441-6.958zm10.043 0c0-2.932-1.343-4.661-3.602-4.661-2.258 0-3.6 1.743-3.6 4.66 0 2.944 1.342 4.66 3.6 4.66 2.259 0 3.602-1.716 3.602-4.66zm5.139-6.791h2.659v2.311h.064a3.24 3.24 0 0 1 3.267-2.453c.321-.002.641.033.955.104v2.607a3.904 3.904 0 0 0-1.253-.169 2.808 2.808 0 0 0-2.904 3.125v8.055h-2.788v-13.58zm19.797 9.591c-.375 2.466-2.775 4.158-5.847 4.158-3.951 0-6.403-2.647-6.403-6.894 0-4.26 2.465-7.022 6.286-7.022 3.757 0 6.12 2.58 6.12 6.698v.955h-9.592v.169a3.546 3.546 0 0 0 .958 2.748 3.542 3.542 0 0 0 2.695 1.099 3.072 3.072 0 0 0 3.136-1.91h2.647zm-9.423-4.053h6.79a3.266 3.266 0 0 0-3.331-3.447 3.438 3.438 0 0 0-3.459 3.447zM56.74 13.097a3.96 3.96 0 0 1 4.21 4.447c0 2.86-1.545 4.503-4.21 4.503h-3.234v-8.95h3.233zm-1.843 7.684h1.687a2.813 2.813 0 0 0 2.952-3.219 2.822 2.822 0 0 0-2.952-3.2h-1.688v6.419zm7.624-2.115a3.202 3.202 0 0 1 4.48-3.23 3.199 3.199 0 0 1 1.89 3.23 3.203 3.203 0 0 1-3.185 3.511 3.2 3.2 0 0 1-3.185-3.51zm5 0c0-1.464-.658-2.32-1.813-2.32-1.158 0-1.81.856-1.81 2.32 0 1.476.652 2.326 1.81 2.326 1.155 0 1.813-.855 1.813-2.326zm9.839 3.381h-1.383l-1.396-4.975h-.105l-1.39 4.975h-1.37l-1.862-6.755h1.352l1.21 5.154h.1l1.388-5.154h1.28l1.388 5.154h.105l1.204-5.154h1.333l-1.854 6.755zm3.42-6.755h1.284v1.073h.1a2.022 2.022 0 0 1 2.015-1.203 2.198 2.198 0 0 1 2.338 2.512v4.373h-1.333v-4.038c0-1.086-.472-1.625-1.458-1.625a1.549 1.549 0 0 0-1.613 1.711v3.952H80.78v-6.755zm7.86-2.637h1.334v9.392H88.64v-9.392zm3.187 6.011a3.199 3.199 0 0 1 5.553-2.457 3.201 3.201 0 0 1 .818 2.457 3.2 3.2 0 1 1-6.371 0zm5 0c0-1.464-.659-2.32-1.813-2.32-1.158 0-1.81.856-1.81 2.32 0 1.476.652 2.326 1.81 2.326 1.154 0 1.812-.855 1.812-2.326zm2.774 1.471c0-1.216.906-1.917 2.513-2.017l1.829-.105v-.583c0-.714-.472-1.117-1.383-1.117-.744 0-1.259.274-1.407.751h-1.29c.135-1.16 1.227-1.904 2.759-1.904 1.693 0 2.648.843 2.648 2.27v4.615h-1.283v-.95h-.105a2.275 2.275 0 0 1-2.029 1.06 2.037 2.037 0 0 1-2.073-1.194 2.041 2.041 0 0 1-.179-.826zm4.342-.578v-.564l-1.649.105c-.93.062-1.352.379-1.352.974 0 .608.527.962 1.252.962a1.592 1.592 0 0 0 1.749-1.477zm3.079-.893c0-2.134 1.097-3.486 2.804-3.486a2.226 2.226 0 0 1 2.071 1.185h.1v-3.71h1.333v9.392h-1.277V20.98h-.106a2.34 2.34 0 0 1-2.121 1.178c-1.718 0-2.804-1.352-2.804-3.492zm1.377 0c0 1.433.676 2.295 1.805 2.295 1.123 0 1.818-.874 1.818-2.289 0-1.407-.702-2.294-1.818-2.294-1.122 0-1.805.868-1.805 2.288zm10.446 0a3.203 3.203 0 0 1 1.891-3.23 3.192 3.192 0 0 1 2.589 0 3.197 3.197 0 0 1 1.891 3.23 3.195 3.195 0 0 1-.816 2.461 3.191 3.191 0 0 1-2.37 1.05 3.2 3.2 0 0 1-3.185-3.51zm5 0c0-1.464-.658-2.32-1.812-2.32-1.159 0-1.811.856-1.811 2.32 0 1.476.652 2.326 1.811 2.326 1.154 0 1.812-.855 1.812-2.326zm3.159-3.374h1.283v1.073h.1a2.023 2.023 0 0 1 2.016-1.203 2.197 2.197 0 0 1 2.338 2.512v4.373h-1.333v-4.038c0-1.086-.472-1.625-1.458-1.625a1.549 1.549 0 0 0-1.613 1.711v3.952h-1.333v-6.755zm13.269-1.682v1.713h1.463v1.123h-1.463v3.473c0 .707.291 1.017.955 1.017.17 0 .339-.01.508-.03v1.11a4.372 4.372 0 0 1-.725.068c-1.482 0-2.073-.521-2.073-1.824v-3.814h-1.072v-1.123h1.072V13.61h1.335zm3.284-.955h1.321v3.723h.106a2.079 2.079 0 0 1 2.059-1.21 2.222 2.222 0 0 1 2.243 1.55c.098.313.127.643.083.968v4.36h-1.334v-4.031c0-1.08-.502-1.626-1.444-1.626a1.582 1.582 0 0 0-1.249.461 1.575 1.575 0 0 0-.452 1.252v3.945h-1.333v-9.392zm13.585 7.568a2.742 2.742 0 0 1-2.927 1.954 3.07 3.07 0 0 1-3.12-3.486 3.115 3.115 0 0 1 3.114-3.53c1.88 0 3.013 1.285 3.013 3.406v.465h-4.769v.075a1.786 1.786 0 0 0 1.799 1.935 1.618 1.618 0 0 0 1.607-.82h1.283zm-4.689-2.177h3.412a1.63 1.63 0 0 0-1.663-1.75 1.728 1.728 0 0 0-1.749 1.75z" fill="#fff"/></g><defs><clipPath id="clip0"><path fill="#fff" d="M0 0h179.496v60H0z"/></clipPath></defs></svg>