<svg width="180" height="60" viewBox="0 0 180 60" fill="none" xmlns="http://www.w3.org/2000/svg">
<g clip-path="url(#clip0)">
<path d="M165.202 6.53003e-05H14.302C13.752 6.53003e-05 13.2085 6.53003e-05 12.6599 0.0030653C12.2007 0.0060653 11.7451 0.0147803 11.2815 0.0221153C10.2743 0.033968 9.26941 0.12258 8.27565 0.28718C7.28329 0.455364 6.32201 0.772439 5.42433 1.22768C4.52775 1.68677 3.70852 2.28332 2.99636 2.99567C2.28045 3.70602 1.68369 4.52709 1.22903 5.4273C0.7731 6.32573 0.456961 7.28847 0.291525 8.28228C0.124516 9.27484 0.0346476 10.2788 0.022725 11.2853C0.008805 11.7452 0.007335 12.2066 0 12.6666V47.338C0.007335 47.8037 0.008805 48.2549 0.022725 48.7208C0.0346512 49.7272 0.12452 50.7311 0.291525 51.7237C0.456504 52.718 0.772662 53.6813 1.22903 54.5801C1.68349 55.4774 2.28033 56.2952 2.99636 57.0016C3.70582 57.7171 4.52558 58.314 5.42433 58.7696C6.322 59.2261 7.28318 59.545 8.27565 59.7158C9.26958 59.8791 10.2743 59.9677 11.2815 59.981C11.7451 59.9912 12.2007 59.9971 12.6599 59.9971C13.2085 60.0001 13.752 60.0001 14.302 60.0001H165.202C165.741 60.0001 166.289 60.0001 166.828 59.9971C167.285 59.9971 167.754 59.9912 168.211 59.981C169.216 59.9684 170.219 59.8798 171.211 59.7158C172.207 59.5438 173.171 59.2249 174.073 58.7696C174.971 58.3138 175.79 57.7168 176.499 57.0016C177.213 56.2924 177.811 55.4752 178.272 54.5801C178.724 53.6807 179.038 52.7175 179.2 51.7237C179.367 50.731 179.46 49.7273 179.479 48.7208C179.484 48.2549 179.484 47.8037 179.484 47.338C179.496 46.793 179.496 46.2511 179.496 45.6973V14.3043C179.496 13.7549 179.496 13.21 179.484 12.6666C179.484 12.2066 179.484 11.7452 179.479 11.2852C179.46 10.2787 179.367 9.27492 179.2 8.28222C179.037 7.28899 178.724 6.32632 178.272 5.42724C177.346 3.62286 175.877 2.1541 174.073 1.22755C173.171 0.773416 172.207 0.456426 171.211 0.287045C170.219 0.121719 169.216 0.0330769 168.211 0.0219053C167.754 0.0145853 167.285 0.0057953 166.828 0.0028703C166.289 -0.0001297 165.741 -0.0001297 165.202 -0.0001297V6.53003e-05Z" fill="#A6A6A6"/>
<path d="M12.6672 58.6875C12.2102 58.6875 11.7642 58.6816 11.3108 58.6714C10.3715 58.6592 9.43434 58.5774 8.50709 58.4268C7.64248 58.2779 6.8049 58.0009 6.02198 57.605C5.24625 57.2123 4.53871 56.6974 3.92648 56.08C3.30539 55.47 2.78831 54.7624 2.39572 53.9853C1.9988 53.2032 1.72411 52.3648 1.58122 51.4995C1.42691 50.5697 1.34342 49.6295 1.33147 48.687C1.32196 48.3707 1.30951 47.3174 1.30951 47.3174V12.6665C1.30951 12.6665 1.32277 11.6294 1.33154 11.3247C1.34298 10.3837 1.42599 9.44498 1.57984 8.5166C1.723 7.64888 1.9979 6.80812 2.39503 6.02344C2.78618 5.24692 3.30039 4.53879 3.91774 3.92652C4.53439 3.30843 5.24419 2.79091 6.02125 2.39281C6.80237 1.99814 7.63836 1.7231 8.50123 1.57691C9.43153 1.42475 10.3719 1.34249 11.3145 1.33082L12.668 1.3125H166.821L168.19 1.33155C169.124 1.34265 170.056 1.42417 170.978 1.57543C171.85 1.72346 172.694 2.00042 173.484 2.39721C175.041 3.19948 176.308 4.46874 177.107 6.02711C177.498 6.80637 177.768 7.64026 177.91 8.50048C178.065 9.43649 178.153 10.3826 178.17 11.3313C178.175 11.7561 178.175 12.2124 178.175 12.6665C178.187 13.229 178.187 13.7644 178.187 14.3042V45.6972C178.187 46.2421 178.187 46.7739 178.175 47.31C178.175 47.7978 178.175 48.2446 178.169 48.7045C178.151 49.6363 178.066 50.5655 177.913 51.4848C177.773 52.3564 177.499 53.2013 177.103 53.9898C176.707 54.7584 176.193 55.4599 175.579 56.0683C174.966 56.689 174.258 57.2069 173.48 57.6021C172.692 58.0011 171.849 58.2791 170.978 58.4268C170.051 58.5782 169.114 58.66 168.174 58.6714C167.735 58.6816 167.275 58.6875 166.828 58.6875L165.202 58.6905L12.6672 58.6875Z" fill="black"/>
<path d="M37.1533 30.451C37.1694 29.199 37.502 27.9715 38.12 26.8825C38.7381 25.7936 39.6215 24.8787 40.6881 24.2229C40.0105 23.2552 39.1166 22.4588 38.0774 21.897C37.0381 21.3351 35.8822 21.0234 34.7014 20.9864C32.1825 20.722 29.7406 22.4937 28.4571 22.4937C27.1486 22.4937 25.1724 21.0127 23.0443 21.0564C21.6678 21.1009 20.3263 21.5012 19.1505 22.2183C17.9746 22.9354 17.0046 23.9448 16.3349 25.1482C13.4339 30.1709 15.5978 37.5525 18.3767 41.6124C19.7671 43.6004 21.392 45.8211 23.5182 45.7423C25.5988 45.656 26.3758 44.4156 28.8873 44.4156C31.3754 44.4156 32.1045 45.7423 34.2738 45.6923C36.5063 45.656 37.913 43.6954 39.2545 41.6885C40.2535 40.272 41.0222 38.7064 41.5322 37.0498C40.2351 36.5012 39.1282 35.5829 38.3495 34.4095C37.5709 33.236 37.1548 31.8593 37.1533 30.451V30.451Z" fill="white"/>
<path d="M33.0558 18.3163C34.2731 16.855 34.8728 14.9768 34.7276 13.0804C32.8679 13.2757 31.15 14.1646 29.9162 15.5698C29.313 16.2563 28.851 17.055 28.5567 17.9201C28.2623 18.7853 28.1413 19.7 28.2007 20.6119C29.1309 20.6215 30.0512 20.4199 30.8921 20.0222C31.7331 19.6246 32.4729 19.0413 33.0558 18.3163Z" fill="white"/>
<path d="M63.4534 40.7095H56.3533L54.6482 45.7442H51.6409L58.366 27.1172H61.4905L68.2156 45.7442H65.157L63.4534 40.7095ZM57.0886 38.3862H62.7166L59.9422 30.2153H59.8646L57.0886 38.3862Z" fill="white"/>
<path d="M82.7395 38.9546C82.7395 43.1748 80.4807 45.8862 77.072 45.8862C76.2086 45.9314 75.3498 45.7325 74.5941 45.3123C73.8384 44.8921 73.2163 44.2676 72.7991 43.5102H72.7346V50.2368H69.947V32.1636H72.6453V34.4224H72.6965C73.133 33.6687 73.7656 33.0474 74.527 32.6246C75.2885 32.2018 76.1503 31.9934 77.0208 32.0215C80.4675 32.0215 82.7395 34.7461 82.7395 38.9546ZM79.8743 38.9546C79.8743 36.2051 78.4534 34.3975 76.2854 34.3975C74.1555 34.3975 72.7229 36.2432 72.7229 38.9546C72.7229 41.6909 74.1555 43.5234 76.2854 43.5234C78.4534 43.5234 79.8743 41.729 79.8743 38.9546Z" fill="white"/>
<path d="M97.6868 38.9546C97.6868 43.1748 95.428 45.8862 92.0193 45.8862C91.1558 45.9314 90.297 45.7325 89.5414 45.3123C88.7857 44.8921 88.1636 44.2676 87.7463 43.5102H87.6818V50.2368H84.8942V32.1636H87.5925V34.4224H87.6437C88.0802 33.6687 88.7128 33.0474 89.4742 32.6246C90.2357 32.2019 91.0975 31.9934 91.968 32.0215C95.4148 32.0215 97.6868 34.7461 97.6868 38.9546ZM94.8215 38.9546C94.8215 36.2051 93.4006 34.3975 91.2326 34.3975C89.1028 34.3975 87.6701 36.2432 87.6701 38.9546C87.6701 41.6909 89.1028 43.5235 91.2326 43.5235C93.4006 43.5235 94.8215 41.729 94.8215 38.9546H94.8215Z" fill="white"/>
<path d="M107.566 40.5542C107.772 42.4014 109.567 43.6142 112.019 43.6142C114.368 43.6142 116.059 42.4013 116.059 40.7358C116.059 39.29 115.039 38.4243 112.625 37.831L110.211 37.2494C106.791 36.4233 105.203 34.8237 105.203 32.228C105.203 29.0141 108.004 26.8066 111.981 26.8066C115.917 26.8066 118.615 29.0141 118.706 32.228H115.892C115.723 30.3691 114.187 29.247 111.941 29.247C109.696 29.247 108.159 30.3823 108.159 32.0346C108.159 33.3515 109.14 34.1264 111.541 34.7196L113.593 35.2235C117.415 36.1273 119.003 37.6625 119.003 40.3871C119.003 43.8719 116.227 46.0546 111.812 46.0546C107.681 46.0546 104.892 43.9232 104.712 40.5541L107.566 40.5542Z" fill="white"/>
<path d="M125.019 28.9497V32.1636H127.602V34.3711H125.019V41.8579C125.019 43.021 125.536 43.563 126.672 43.563C126.978 43.5576 127.284 43.5361 127.589 43.4985V45.6928C127.078 45.7882 126.559 45.8314 126.04 45.8217C123.291 45.8217 122.218 44.789 122.218 42.1552V34.3711H120.244V32.1636H122.218V28.9497H125.019Z" fill="white"/>
<path d="M129.097 38.9546C129.097 34.6817 131.614 31.9966 135.538 31.9966C139.476 31.9966 141.981 34.6816 141.981 38.9546C141.981 43.2393 139.489 45.9126 135.538 45.9126C131.589 45.9126 129.097 43.2393 129.097 38.9546ZM139.14 38.9546C139.14 36.0234 137.797 34.2935 135.538 34.2935C133.28 34.2935 131.938 36.0366 131.938 38.9546C131.938 41.8975 133.28 43.6143 135.538 43.6143C137.797 43.6143 139.14 41.8975 139.14 38.9546H139.14Z" fill="white"/>
<path d="M144.279 32.1636H146.938V34.4751H147.002C147.182 33.7531 147.605 33.1151 148.2 32.6683C148.795 32.2215 149.525 31.9931 150.269 32.0215C150.59 32.0203 150.91 32.0552 151.224 32.1255V34.7329C150.818 34.609 150.395 34.5521 149.971 34.5644C149.566 34.548 149.163 34.6194 148.788 34.7737C148.413 34.9281 148.076 35.1617 147.8 35.4585C147.524 35.7553 147.316 36.1084 147.189 36.4934C147.063 36.8784 147.021 37.2862 147.067 37.6889V45.7441H144.279L144.279 32.1636Z" fill="white"/>
<path d="M164.076 41.7554C163.701 44.2207 161.301 45.9126 158.229 45.9126C154.278 45.9126 151.826 43.2656 151.826 39.019C151.826 34.7593 154.291 31.9966 158.112 31.9966C161.869 31.9966 164.232 34.5776 164.232 38.6953V39.6504H154.64V39.8188C154.596 40.3186 154.658 40.8221 154.823 41.2959C154.989 41.7697 155.253 42.2028 155.598 42.5667C155.944 42.9305 156.363 43.2166 156.828 43.4061C157.292 43.5955 157.792 43.684 158.293 43.6655C158.952 43.7272 159.613 43.5747 160.178 43.2305C160.743 42.8863 161.182 42.369 161.429 41.7554L164.076 41.7554ZM154.653 37.7021H161.443C161.468 37.2527 161.4 36.803 161.243 36.3812C161.085 35.9594 160.843 35.5746 160.53 35.2509C160.217 34.9273 159.841 34.6718 159.425 34.5005C159.009 34.3291 158.562 34.2457 158.112 34.2554C157.658 34.2527 157.208 34.3399 156.788 34.512C156.368 34.6841 155.986 34.9377 155.664 35.2582C155.343 35.5786 155.088 35.9596 154.914 36.379C154.741 36.7985 154.652 37.2482 154.653 37.7022V37.7021Z" fill="white"/>
<path d="M56.7393 13.0965C57.3237 13.0546 57.9101 13.1429 58.4563 13.355C59.0025 13.5672 59.4948 13.8979 59.8976 14.3233C60.3005 14.7487 60.6039 15.2583 60.7861 15.8152C60.9682 16.3721 61.0244 16.9625 60.9507 17.5438C60.9507 20.4031 59.4053 22.0468 56.7393 22.0468H53.5064V13.0965H56.7393ZM54.8965 20.781H56.584C57.0016 20.806 57.4195 20.7375 57.8073 20.5806C58.1951 20.4237 58.5431 20.1822 58.8258 19.8739C59.1086 19.5655 59.319 19.198 59.4418 18.7981C59.5646 18.3982 59.5966 17.9759 59.5357 17.562C59.5922 17.1498 59.5569 16.7301 59.4322 16.3331C59.3075 15.9361 59.0966 15.5716 58.8145 15.2657C58.5324 14.9598 58.1861 14.7201 57.8005 14.5637C57.4149 14.4074 56.9995 14.3383 56.584 14.3613H54.8965V20.781Z" fill="white"/>
<path d="M62.521 18.6665C62.4786 18.2226 62.5294 17.7748 62.6701 17.3517C62.8109 16.9286 63.0385 16.5396 63.3384 16.2096C63.6383 15.8796 64.0039 15.616 64.4117 15.4356C64.8195 15.2551 65.2604 15.1619 65.7064 15.1619C66.1523 15.1619 66.5932 15.2551 67.001 15.4356C67.4088 15.616 67.7744 15.8796 68.0743 16.2096C68.3742 16.5396 68.6018 16.9286 68.7426 17.3517C68.8833 17.7748 68.9341 18.2226 68.8917 18.6665C68.9349 19.1108 68.8847 19.5593 68.7444 19.9831C68.604 20.4069 68.3765 20.7966 68.0765 21.1272C67.7765 21.4579 67.4107 21.7221 67.0025 21.9029C66.5943 22.0837 66.1528 22.1771 65.7064 22.1771C65.2599 22.1771 64.8184 22.0837 64.4102 21.9029C64.002 21.7221 63.6362 21.4579 63.3362 21.1272C63.0362 20.7966 62.8087 20.4069 62.6683 19.9831C62.528 19.5593 62.4778 19.1108 62.521 18.6665V18.6665ZM67.5205 18.6665C67.5205 17.2024 66.8628 16.3462 65.7085 16.3462C64.5499 16.3462 63.898 17.2024 63.898 18.6665C63.898 20.1424 64.5499 20.992 65.7085 20.992C66.8629 20.9919 67.5206 20.1365 67.5206 18.6665H67.5205Z" fill="white"/>
<path d="M77.3599 22.0466H75.9771L74.5811 17.072H74.4756L73.0855 22.0466H71.7158L69.854 15.2922H71.2061L72.416 20.4462H72.5157L73.9043 15.2922H75.1831L76.5718 20.4462H76.6773L77.8814 15.2922H79.2144L77.3599 22.0466Z" fill="white"/>
<path d="M80.7803 15.2922H82.0635V16.3652H82.1631C82.3321 15.9798 82.6171 15.6568 82.9784 15.4411C83.3397 15.2254 83.7593 15.1278 84.1787 15.1618C84.5074 15.1371 84.8374 15.1867 85.1443 15.3068C85.4512 15.427 85.7271 15.6146 85.9516 15.8559C86.1762 16.0972 86.3435 16.3859 86.4413 16.7006C86.5391 17.0153 86.5649 17.348 86.5166 17.674V22.0466H85.1836V18.0088C85.1836 16.9233 84.7119 16.3835 83.7261 16.3835C83.503 16.3731 83.2802 16.4111 83.0731 16.4949C82.8661 16.5786 82.6795 16.7061 82.5263 16.8687C82.3732 17.0313 82.2569 17.2251 82.1856 17.4368C82.1143 17.6485 82.0897 17.8731 82.1133 18.0952V22.0466H80.7803L80.7803 15.2922Z" fill="white"/>
<path d="M88.6407 12.6555H89.9737V22.0466H88.6407V12.6555Z" fill="white"/>
<path d="M91.8267 18.6665C91.7842 18.2226 91.8351 17.7747 91.9759 17.3516C92.1166 16.9285 92.3443 16.5395 92.6443 16.2095C92.9442 15.8795 93.3098 15.6158 93.7176 15.4354C94.1254 15.255 94.5664 15.1618 95.0124 15.1618C95.4583 15.1618 95.8993 15.255 96.3071 15.4354C96.7149 15.6158 97.0805 15.8795 97.3805 16.2095C97.6804 16.5395 97.9081 16.9285 98.0489 17.3516C98.1897 17.7747 98.2405 18.2226 98.198 18.6665C98.2413 19.1109 98.191 19.5593 98.0506 19.9831C97.9102 20.4069 97.6826 20.7966 97.3826 21.1272C97.0826 21.4579 96.7167 21.722 96.3085 21.9028C95.9003 22.0836 95.4588 22.177 95.0124 22.177C94.5659 22.177 94.1244 22.0836 93.7162 21.9028C93.308 21.722 92.9421 21.4579 92.6421 21.1272C92.3421 20.7966 92.1145 20.4069 91.9741 19.9831C91.8337 19.5593 91.7835 19.1109 91.8267 18.6665V18.6665ZM96.8262 18.6665C96.8262 17.2024 96.1685 16.3462 95.0142 16.3462C93.8555 16.3462 93.2037 17.2024 93.2037 18.6665C93.2037 20.1424 93.8555 20.992 95.0142 20.992C96.1685 20.9919 96.8262 20.1365 96.8262 18.6665H96.8262Z" fill="white"/>
<path d="M99.6013 20.1365C99.6013 18.9207 100.507 18.2197 102.114 18.1201L103.943 18.0147V17.4317C103.943 16.7183 103.471 16.3154 102.56 16.3154C101.816 16.3154 101.301 16.5886 101.153 17.0662H99.8621C99.9983 15.906 101.09 15.1619 102.622 15.1619C104.315 15.1619 105.27 16.0049 105.27 17.4317V22.0466H103.987V21.0974H103.882C103.668 21.4379 103.367 21.7155 103.011 21.9018C102.654 22.0881 102.255 22.1765 101.853 22.1579C101.569 22.1874 101.283 22.1572 101.012 22.0691C100.74 21.9811 100.491 21.8372 100.279 21.6467C100.066 21.4563 99.8966 21.2235 99.78 20.9634C99.6633 20.7032 99.6025 20.4216 99.6013 20.1365V20.1365ZM103.943 19.5593V18.9946L102.294 19.1001C101.364 19.1624 100.942 19.4788 100.942 20.0742C100.942 20.6821 101.469 21.0359 102.194 21.0359C102.407 21.0574 102.621 21.0359 102.825 20.9728C103.029 20.9097 103.219 20.8061 103.382 20.6684C103.545 20.5306 103.679 20.3614 103.775 20.1709C103.872 19.9804 103.929 19.7724 103.943 19.5593V19.5593Z" fill="white"/>
<path d="M107.022 18.6665C107.022 16.5322 108.119 15.1802 109.826 15.1802C110.248 15.1607 110.667 15.2618 111.034 15.4717C111.401 15.6815 111.7 15.9914 111.897 16.3652H111.997V12.6555H113.33V22.0466H112.053V20.9795H111.947C111.735 21.3507 111.425 21.6568 111.051 21.8645C110.677 22.0722 110.253 22.1737 109.826 22.1579C108.108 22.158 107.022 20.8059 107.022 18.6665ZM108.399 18.6665C108.399 20.0991 109.075 20.9612 110.204 20.9612C111.327 20.9612 112.022 20.0867 112.022 18.6724C112.022 17.2647 111.32 16.3777 110.204 16.3777C109.082 16.3777 108.399 17.2456 108.399 18.6665H108.399Z" fill="white"/>
<path d="M118.845 18.6665C118.803 18.2226 118.853 17.7748 118.994 17.3517C119.135 16.9286 119.362 16.5396 119.662 16.2096C119.962 15.8796 120.328 15.616 120.736 15.4356C121.143 15.2551 121.584 15.1619 122.03 15.1619C122.476 15.1619 122.917 15.2551 123.325 15.4356C123.733 15.616 124.098 15.8796 124.398 16.2096C124.698 16.5396 124.926 16.9286 125.067 17.3517C125.207 17.7748 125.258 18.2226 125.216 18.6665C125.259 19.1108 125.209 19.5593 125.068 19.9831C124.928 20.4069 124.7 20.7966 124.4 21.1272C124.1 21.4579 123.735 21.7221 123.326 21.9029C122.918 22.0837 122.477 22.1771 122.03 22.1771C121.584 22.1771 121.142 22.0837 120.734 21.9029C120.326 21.7221 119.96 21.4579 119.66 21.1272C119.36 20.7966 119.133 20.4069 118.992 19.9831C118.852 19.5593 118.802 19.1108 118.845 18.6665V18.6665ZM123.845 18.6665C123.845 17.2024 123.187 16.3462 122.033 16.3462C120.874 16.3462 120.222 17.2024 120.222 18.6665C120.222 20.1424 120.874 20.992 122.033 20.992C123.187 20.9919 123.845 20.1365 123.845 18.6665Z" fill="white"/>
<path d="M127.004 15.2922H128.287V16.3652H128.387C128.556 15.9798 128.841 15.6568 129.202 15.4411C129.564 15.2254 129.983 15.1278 130.403 15.1618C130.731 15.1371 131.061 15.1867 131.368 15.3068C131.675 15.427 131.951 15.6146 132.176 15.8559C132.4 16.0972 132.567 16.3859 132.665 16.7006C132.763 17.0153 132.789 17.348 132.741 17.674V22.0466H131.408V18.0088C131.408 16.9233 130.936 16.3835 129.95 16.3835C129.727 16.3731 129.504 16.4111 129.297 16.4949C129.09 16.5786 128.903 16.7061 128.75 16.8687C128.597 17.0313 128.481 17.2251 128.41 17.4368C128.338 17.6485 128.314 17.8731 128.337 18.0952V22.0466H127.004V15.2922Z" fill="white"/>
<path d="M140.273 13.6106V15.323H141.736V16.4458H140.273V19.919C140.273 20.6265 140.564 20.9363 141.228 20.9363C141.398 20.9357 141.567 20.9255 141.736 20.9055V22.0159C141.497 22.0587 141.254 22.0815 141.011 22.084C139.529 22.084 138.938 21.5625 138.938 20.2602V16.4457H137.866V15.3229H138.938V13.6106H140.273Z" fill="white"/>
<path d="M143.557 12.6555H144.878V16.3777H144.984C145.161 15.9887 145.454 15.6638 145.822 15.4473C146.191 15.2308 146.617 15.1331 147.043 15.1677C147.37 15.1499 147.697 15.2045 148 15.3276C148.304 15.4506 148.576 15.6391 148.798 15.8797C149.021 16.1202 149.187 16.4067 149.286 16.7189C149.384 17.0311 149.413 17.3613 149.369 17.6858V22.0466H148.035V18.0146C148.035 16.9358 147.533 16.3894 146.591 16.3894C146.362 16.3706 146.131 16.4021 145.915 16.4817C145.7 16.5612 145.504 16.687 145.342 16.8501C145.18 17.0132 145.056 17.2097 144.978 17.4259C144.9 17.6421 144.87 17.8728 144.89 18.1018V22.0466H143.557L143.557 12.6555Z" fill="white"/>
<path d="M157.142 20.2229C156.961 20.8402 156.568 21.3742 156.033 21.7314C155.498 22.0886 154.855 22.2464 154.215 22.177C153.77 22.1887 153.328 22.1035 152.919 21.9272C152.51 21.7509 152.145 21.4878 151.848 21.1561C151.551 20.8244 151.33 20.432 151.2 20.0063C151.07 19.5806 151.034 19.1316 151.095 18.6907C151.036 18.2483 151.072 17.7985 151.202 17.3714C151.332 16.9444 151.552 16.5503 151.847 16.2157C152.142 15.8811 152.506 15.6138 152.914 15.432C153.321 15.2502 153.763 15.1581 154.209 15.1619C156.089 15.1619 157.222 16.4459 157.222 18.5669V19.032H152.453V19.1067C152.432 19.3546 152.463 19.6041 152.544 19.8392C152.626 20.0743 152.755 20.2899 152.924 20.4721C153.094 20.6542 153.299 20.799 153.528 20.8971C153.756 20.9952 154.003 21.0445 154.252 21.0417C154.571 21.08 154.894 21.0226 155.18 20.8768C155.466 20.7309 155.702 20.5033 155.859 20.2229L157.142 20.2229ZM152.453 18.0461H155.865C155.881 17.8195 155.85 17.5918 155.774 17.3777C155.698 17.1636 155.577 16.9679 155.421 16.8031C155.264 16.6383 155.075 16.5081 154.865 16.4208C154.655 16.3336 154.429 16.2912 154.202 16.2964C153.971 16.2935 153.743 16.3368 153.529 16.4237C153.315 16.5106 153.121 16.6394 152.958 16.8025C152.795 16.9655 152.667 17.1596 152.58 17.3732C152.493 17.5868 152.45 17.8156 152.453 18.0461H152.453Z" fill="white"/>
</g>
<defs>
<clipPath id="clip0">
<rect width="179.496" height="60" fill="white"/>
</clipPath>
</defs>
</svg>
